<svg id="Layer_1" data-name="Layer 1" xmlns="http://www.w3.org/2000/svg" viewBox="0 0 683.05 142"><defs><style>.cls-1{fill:#fff}</style></defs><path class="cls-1" d="M73.58 53a18.5 18.5 0 0 1-3 10.55 16.57 16.57 0 0 1-8.14 6.36l2.1 38.33a3.32 3.32 0 0 1-1.03 2.76 3.83 3.83 0 0 1-2.82 1.21h-10.3a3.83 3.83 0 0 1-2.82-1.21 3.32 3.32 0 0 1-1-2.82l2.09-38.33a16.59 16.59 0 0 1-8.13-6.36A18.42 18.42 0 0 1 37.5 53q0-5.48 2.58-20.77a2.93 2.93 0 0 1 2.09-2.1 5.24 5.24 0 0 1 3.62 0 2.63 2.63 0 0 1 2 2.26v22.67c.11.32.53.48 1.29.48s1.18-.11 1.29-.32l1.28-22.87a3 3 0 0 1 2.1-2.26 5 5 0 0 1 3.54 0 3 3 0 0 1 2.09 2.26l1.29 22.87c.11.21.54.32 1.29.32s1.18-.16 1.29-.48V32.35a2.63 2.63 0 0 1 2-2.26 5.27 5.27 0 0 1 3.63 0 2.93 2.93 0 0 1 2.12 2.1q2.58 15.3 2.58 20.81zm14.17 55a3.87 3.87 0 0 0 3.87 4.19h9a3.86 3.86 0 0 0 3.87-3.86v-74.7a3.86 3.86 0 0 0-3.87-3.86q-5.14 0-10.87 4.83A31.67 31.67 0 0 0 81 46.68a24.73 24.73 0 0 0-1.63 15.62q1.93 9 10.8 16zM166.54 112.62V28.93h37.72a24.26 24.26 0 0 1 10.9 2.47 29.09 29.09 0 0 1 8.67 6.49 30.26 30.26 0 0 1 5.71 9.11 26.93 26.93 0 0 1 2.07 10.26A29.3 29.3 0 0 1 228 71.48a25.5 25.5 0 0 1-10 10l18.39 31.12h-21.88l-16-27h-12.64v27zm19.33-43.85h17.68a7.27 7.27 0 0 0 5.9-3.24 13.3 13.3 0 0 0 2.47-8.31 11.66 11.66 0 0 0-2.83-8.22 8.26 8.26 0 0 0-6.09-3.1h-17.13zM304.33 95.64v17h-58.81V28.93h57.75v17h-38.42v16.24h33v15.68h-33v17.79zM309.52 70.07a42.15 42.15 0 0 1 2.83-15 41 41 0 0 1 8.25-13.38 42 42 0 0 1 13.2-9.55 41.21 41.21 0 0 1 17.68-3.65q11.79 0 20.45 5.07a32.66 32.66 0 0 1 12.91 13.2L370 57.1a17.06 17.06 0 0 0-3.6-5.48 19.5 19.5 0 0 0-10.07-5.42 27.16 27.16 0 0 0-5.31-.53 19.86 19.86 0 0 0-9.66 2.24 21.13 21.13 0 0 0-6.84 5.77 24.08 24.08 0 0 0-4 8 32.59 32.59 0 0 0-1.29 9.07 29.75 29.75 0 0 0 1.53 9.55 25.17 25.17 0 0 0 4.42 8.13 21.2 21.2 0 0 0 6.95 5.6 19.86 19.86 0 0 0 9.14 2.07 23.69 23.69 0 0 0 5.36-.65 21.28 21.28 0 0 0 5.3-2 18.86 18.86 0 0 0 4.66-3.53 16.71 16.71 0 0 0 3.41-5.36l15.79 9.32a24.63 24.63 0 0 1-5.59 8.25 34.83 34.83 0 0 1-8.55 6.13 47.06 47.06 0 0 1-20.86 5.07 37.41 37.41 0 0 1-16.68-3.72A42.13 42.13 0 0 1 321 99.77a45 45 0 0 1-8.48-13.91 43.38 43.38 0 0 1-3-15.79zM454.27 95.64v17h-58.82V28.93h57.76v17h-38.43v16.24h33v15.68h-33v17.79zM466.05 112.62V28.93h35.72a24.52 24.52 0 0 1 11 2.47 28.33 28.33 0 0 1 8.61 6.49 30.9 30.9 0 0 1 5.67 9.11 26.93 26.93 0 0 1 2.07 10.26 29.32 29.32 0 0 1-2 10.61 30.25 30.25 0 0 1-5.42 9.07 25.48 25.48 0 0 1-8.43 6.37 25.18 25.18 0 0 1-11 2.36h-17v27zm19.33-43.85h15.8a7.45 7.45 0 0 0 5.89-3q2.48-2.94 2.48-8.6a14.94 14.94 0 0 0-.77-5.07 10.46 10.46 0 0 0-2.06-3.54 8 8 0 0 0-3-2.06 9 9 0 0 0-3.3-.65h-15.04zM603.26 45.9H577.8v66.72h-19.34V45.9h-25.57v-17h70.37zM625.65 28.93l18 38.42L662 28.93h21.09l-29.86 55.16v28.53H634V83.86l-29.33-54.93z"/><path class="cls-1" d="M71 142a71 71 0 1 1 71-71 71.08 71.08 0 0 1-71 71zM71 8a63 63 0 1 0 63 63A63.07 63.07 0 0 0 71 8z"/><path class="cls-1" d="M30.27 104.11a1.49 1.49 0 0 1-1.18-.58A52.5 52.5 0 0 1 18 71a53.23 53.23 0 0 1 1.85-14 1.5 1.5 0 1 1 2.89.79A50.16 50.16 0 0 0 21 71a49.53 49.53 0 0 0 10.51 30.69 1.5 1.5 0 0 1-.27 2.11 1.48 1.48 0 0 1-.97.31z"/></svg>